<?xml version="1.0" encoding="UTF-8"?>
<svg id="Calque_1" data-name="Calque 1" xmlns="http://www.w3.org/2000/svg" viewBox="0 0 1000 1000">
  <defs>
    <style>
      .cls-1 {
        fill: #fff;
      }
    </style>
  </defs>
  <path class="cls-1" d="M464.44,48.54c-85.14,2.26-152.71,75.44-152.71,162.55-.08,19.74,15.87,35.81,35.61,35.89.09,0,.19,0,.28,0,19.74-.04,35.72-16.08,35.68-35.82,0-.02,0-.05,0-.07,0-51.69,38.71-91.05,85.19-91.05s84.98,39.37,84.98,91.05-38.5,91.33-84.98,91.33H34.67c-19.64.08-35.53,15.98-35.61,35.61-.08,19.74,15.87,35.81,35.61,35.89h433.82c87.04,0,156.55-74.34,156.55-162.83s-69.51-162.55-156.55-162.55c-1.36,0-2.7-.04-4.05,0ZM843.24,210.54c-87.04,0-156.48,74.06-156.48,162.55-.08,19.74,15.87,35.81,35.61,35.89h0c19.74.08,35.81-15.87,35.89-35.61,0-.09,0-.19,0-.28,0-51.69,38.51-90.98,84.98-90.98s85.26,39.3,85.26,90.98-38.78,91.33-85.26,91.33H34.67c-19.64.08-35.53,15.98-35.61,35.61-.08,19.74,15.87,35.81,35.61,35.89h808.57c87.04,0,156.76-74.34,156.76-162.83s-69.71-162.55-156.76-162.55ZM34.67,626.21c-19.74.08-35.69,16.15-35.61,35.89h0c.08,19.64,15.98,35.53,35.61,35.61h505.11c46.47,0,85.26,39.65,85.26,91.33s-38.78,91.05-85.26,91.05-84.98-39.37-84.98-91.05c.08-19.74-15.87-35.81-35.61-35.89-.09,0-.19,0-.28,0-19.74.08-35.69,16.15-35.61,35.89h0c0,88.49,69.44,162.55,156.48,162.55s156.76-74.06,156.76-162.55-68.57-161.53-154.59-162.76c-.72-.05-1.44-.07-2.16-.07H34.67Z"/>
</svg>