<?xml version="1.0" encoding="UTF-8"?>
<svg id="Calque_1" data-name="Calque 1" xmlns="http://www.w3.org/2000/svg" viewBox="0 0 1000 1000">
  <defs>
    <style>
      .cls-1 {
        fill: #e0596a;
      }

      .cls-2 {
        fill: #f7846a;
      }

      .cls-3 {
        fill: #66574b;
      }
    </style>
  </defs>
  <path class="cls-3" d="M218.76,783.18c-19.23-18.44-39.3-35.99-60.13-52.61-6.66-5.31-17.06-16.9-26.45-16.9h-.44c-11.38.43-14.65,12.94-23.25,18.22-4.46,2.74-9.62,3.14-14.93,3.14-2.23,0-4.48-.08-6.73-.08-4.03,0-8,.24-11.71,1.51-8.85,3.02-14.66,11.36-19.44,19.41-6.51,10.98-12.35,22.34-17.46,34.04-.86,1.98-1.73,4.14-1.32,6.25.6,3.15,3.74,5.08,6.58,6.57,28.27,14.72,60.3,23.47,91.99,23.47,17.24,0,34.39-2.56,50.79-8.21,13.68-4.71,27.26-11.97,35.04-24.17.65-1.01,1.25-2.1,1.41-3.25.4-2.89-1.86-5.38-3.95-7.39ZM935.92,788.57c-5.66-4.89-8.23-12.32-11.59-19.01-3.35-6.68-8.57-13.44-15.97-14.45-.68-.1-1.34-.12-2-.12-4.3,0-8.54,1.7-12.77,2.64-1.53.34-3.15.54-4.76.54-3.57,0-7.06-1.01-9.09-3.83-1.54-2.12-1.98-4.92-3.74-6.83-1.39-1.5-3.15-2.09-5.04-2.09-3.75.01-8.1,2.39-11.29,4.88-10.16,7.93-41.46,30.87-30.23,44.03,11.27,13.25,52.17,12.38,67.87,13.28,2.27.12,4.54.24,6.82.24,2.88,0,5.76-.19,8.57-.83,9.09-2.02,16.58-8.24,23.7-14.26.47-.4.98-.87,1.12-1.47.24-1.09-.75-2-1.6-2.72ZM171.77,371.73v.74l.93.63-.93-1.37ZM994.88,661.96c-66.26-48.21-94.23-100.6-116.7-142.69-23.82-44.55-39.56-74.01-86.61-74.58-6.43-.09-14.59-.23-22.67-.7-.72,2.07-1.6,4.14-2.41,6.2-.55,1.39-1.04,2.79-1.63,4.18-1.67,4.06-3.52,8.12-5.57,12.31-2.21,4.48-4.6,8.96-7.14,13.43-1.71,3.01-3.61,6.08-5.48,9.09-.79,1.29-1.54,2.57-2.37,3.85-2.47,3.91-5.16,7.85-7.92,11.82-.24.34-.46.69-.71,1.03-3.03,4.31-6.29,8.7-9.7,13.17-.03.04,0,.09-.06.11,0,.03-.03.03-.03.03-1.98,2.55-3.79,5.06-5.9,7.67-3.28,4.11-6.75,8.28-10.38,12.52-.34.4-.69.81-1.05,1.22-3.73,4.35-7.7,8.84-11.94,13.52.95.05,1.9.11,2.85.12,3.08.05,6.27.11,9.55.96,4.95,1.25,9.11,4.17,12.79,6.73l17.36,12.22c2.09,1.46,2.56,4.33,1.11,6.38-.9,1.27-2.32,1.96-3.75,1.96-.92,0-1.85-.29-2.64-.84l-17.23-12.11c-3.45-2.42-6.56-4.61-9.92-5.44-2.25-.59-4.78-.65-7.43-.69-1.63-.02-3.29-.06-4.91-.19-2.66-.23-5.33-.77-8.12-1.62,0,0-.01,0-.01-.01h-.05c-13.25-4.17-23.42-14.67-33.27-24.82-2.83-2.93-5.62-5.81-8.48-8.53-1.16-1.14-2.38-2.2-3.55-3.19t-.03-.04s-.02-.01-.02-.01c-9.5-8.16-24.47-17.67-41.26-16.23-2.47.14-4.75-1.68-4.94-4.21-.21-2.53,1.66-4.74,4.21-4.93,17.89-1.45,33.49,7.02,44.34,15.49,4.38-5.2,8.51-10.2,12.38-15.05,3.88-4.88,7.57-9.66,10.96-14.29,13.19-17.92,22.74-33.88,29.25-48.76,2.11-4.81,3.71-9.46,5.18-14.03-5.49-4.92-9.97-10.78-13.31-17.52-14.04-28.15-29.26-45.44-47.88-54.41-17.94-8.64-31.42-19.63-41.13-33.59-7.39-10.58-15.66-18.81-25.32-25.14-15.84-10.39-30.94-19.47-44.9-27-14.32-7.72-31.44-7.82-45.83-.28-26.06,13.67-51.9,23.82-74.72,32.78-39.96,15.71-71.52,28.11-82.29,50.05-3.73,7.62-6.83,15.07-9.76,22.12-9.7,23.33-18.08,43.48-41.45,49.69l-11.81,3.09c-34.28,8.9-59.06,15.34-70.13,34.41-5.1,8.81-9.53,17.23-13.73,25.19-15.32,29.09-27.43,52.06-56.54,66.29-47.75,23.29-84.33,47.67-119.12,97.18-5.81,8.32-4.98,19.55,1.99,26.67,20.69,21.16,46.93,39.01,78.3,53.42,1.18-.08,2.39-.19,3.48-.19l3.52.03,3.22.05c4.33,0,7.71-.29,10.14-1.79,1.97-1.2,3.91-3.61,5.98-6.16,4.45-5.47,10.55-12.98,21.72-13.4.11-.01.67-.01.78-.01,10.86,0,20.24,8.36,27.76,15.06,1.6,1.44,3.08,2.76,4.42,3.83,12.46,9.94,24.62,20.47,36.62,31.2,7.27-.12,14.81-.5,22.72-1.24,2.37-.23,4.72-.33,7.03-.33,15.98,0,30.96,5.15,45.59,15.63,75.59,54.33,126.72,47.78,233.79,18.43,23.22-6.35,41.34-7.89,61.4-8.24,14.1-.36,27.18,4.72,42.11,10.43,5.67,2.21,11.71,4.51,18.24,6.7,26.68,8.87,72.6-11,136.17-38.5,9.3-4.02,19.02-8.22,29.15-12.55,22.98-9.8,55.02-18.31,88.94-27.31,38.76-10.29,78.84-20.93,106.53-34,4.13-1.95,6.86-5.85,7.29-10.42.39-4.4-1.5-8.61-5.07-11.22Z"/>
  <g>
    <path class="cls-1" d="M182.22,311.8c9.25,10.07,17.85,26.21,12.13,48.68-2.69.38-5.44.94-8.24,1.72-3.57,1.06-6.67,2.23-9.45,3.57-1.51.7-3.05,1.46-4.72,2.42-.64.39-1.27.75-1.81,1.13l.15.21c-.41.18-.79.41-1.15.64l-.08-.13c-11.4,8.09-27.34,5.44-35.54-5.87-8.23-11.45-5.63-27.5,5.7-35.69l4.91-3.09c1.26-.75,2.52-1.43,4.05-2.26,2.77-1.41,5.48-2.69,8.28-3.85,5.61-2.37,11.37-4.28,17.18-5.71,2.69-.69,5.55-1.28,8.59-1.77Z"/>
    <path class="cls-1" d="M260.35,330.86c-1.06,11.83-5.35,30.86-20.42,44.74-11.17-9.49-22.78-14.8-34.49-15.52-.53-.04-1.06-.03-1.61-.05,4.66-21.58-1.97-37.99-10.66-49.41,6.64-.3,12.05-.21,17.07.39,12.03,1.3,24.23,4.97,35.27,10.64,5.08,2.61,10,5.69,14.84,9.21Z"/>
    <path class="cls-1" d="M302.37,378.22c-7.84,17.69-15.57,28.71-30.31,32.62l-3.3.87c-3.08-5.38-6.69-10.9-11.5-17.57-3.75-4.72-7.18-8.67-10.64-12.26,14.45-13.58,20.06-31.03,22.1-44.07,1.73,1.5,3.49,2.71,5.21,4.33,8.4,7.79,14.86,16.28,21.17,24.87,2.52,3.71,4.95,7.45,7.27,11.21Z"/>
  </g>
  <g>
    <path class="cls-2" d="M675.57,488.96c11.38,4.45,26.6,12.62,41.08,27.2-1.3,1.68-2.47,3.28-3.84,4.99-7.77,9.72-16.26,19.53-26.54,30.74-9.9-4.08-18.45-12.9-26.74-21.47-2.92-3.01-5.81-6-8.72-8.79-.19-.18-.38-.33-.57-.52,9.03-10.64,16.8-20.45,23.73-29.87.57-.79,1.03-1.52,1.6-2.28Z"/>
    <path class="cls-2" d="M744.25,276.87c3.19,8.49,6.38,17.27,9.48,26.24-20.08,2.46-43.05,3.62-60.53,4.11-1.13-2.64-2.16-5.21-3.31-7.9-3.09-7.3-6.29-14.88-9.46-22.82-1.06-2.55-2.09-5.32-3.09-8.02l-.96-2.62c-.71-1.87-1.4-3.72-2.05-5.82l-1.33-4.64c12.66,4.17,25.35,6.36,37.97,6.36,8.88,0,17.73-1.24,26.54-3.32,2.12,6,4.38,12.08,6.74,18.43Z"/>
    <path class="cls-2" d="M704.54,439.83c15.33.69,35.15,3.57,51.44,11.95-1.51,3.59-3.11,7.18-4.93,10.86-7.47,15.19-16.84,30.16-28.79,46.2-14.4-14.25-29.49-22.74-41.26-27.61,9.97-14.49,17.68-27.86,23.18-40.49.15-.31.21-.61.36-.91Z"/>
    <path class="cls-2" d="M680.43,156.86c.07-.15.16-.33.23-.48,3.76-6.41,8.53-12.68,14.14-18.62,2.87-3.01,5.72-5.66,8.82-8.17,1.52-1.28,3.15-2.55,5.01-3.85.62-.47,1.39-.96,2.65-1.79l4.08-2.42c15.97-8.3,35.67-2.04,43.98,13.93,8.04,15.53,2.14,35-13.13,43.43-.16.09-.34.23-.51.35-.18.08-.32.16-.46.23s-.95.64-1.08.72c-1.06.74-2.19,1.69-3.33,2.78-1.54,1.53-3.82,3.86-5.61,6.63-2.43,3.59-4.1,8.03-5.45,12.99-23.33-9.63-39.92-24.98-49.34-45.73Z"/>
    <path class="cls-2" d="M665.95,220.94l-.32-5.45.28-10.88c.07-1.28.24-2.58.42-3.85l.19-1.55c1.29-11.29,4.27-22.2,8.68-32.15,10.99,20.01,29.05,35.25,52.69,44.67l-.27,3.86.11,3.55c.04,1.27.06,2.62.33,4.29.1.61.19,1.19.24,1.79.14,1.27.28,2.55.56,3.6,1.08,6.35,3.3,13.59,5.66,20.81-21.34,4.82-43.05,3.19-64.66-5.15l-.83-2.9c-.59-2.19-1-4.66-1.4-7.1l-.51-3.03c-.6-2.93-.84-6.25-1.17-10.51Z"/>
    <path class="cls-2" d="M704.24,335.28c-2.19-6.26-4.67-12.57-7.27-18.98,17.74-.55,40.27-1.77,59.74-4.23.6,1.83,1.25,3.56,1.82,5.43,5.9,18.95,9.43,36.6,10.8,53.52-20.96-3.67-40.66-1.42-55.35,1.96-1.77-11.78-4.92-24.21-9.74-37.7Z"/>
    <path class="cls-2" d="M770.04,389.69c-.34,15.72-3.26,31.87-8.69,48.04-.62,1.84-1.38,3.67-2.07,5.51-16.54-8.26-35.8-11.44-51.44-12.38.95-2.64,2.18-5.39,2.94-7.95,3.48-11.69,5.11-22.95,4.86-33.54-.08-2.36-.38-4.79-.57-7.21,14.31-3.38,33.95-5.73,54.69-1.75.1,3.09.32,6.23.28,9.28Z"/>
  </g>
</svg>