<?xml version="1.0" encoding="UTF-8"?>
<svg id="Calque_1" data-name="Calque 1" xmlns="http://www.w3.org/2000/svg" viewBox="0 0 1000 1000">
  <defs>
    <style>
      .cls-1 {
        fill: #fff;
      }
    </style>
  </defs>
  <path class="cls-1" d="M154.44,154.44c34.08-34.08,89.34-34.08,123.42,0l222.15,222.15,222.15-222.15c34.08-34.08,89.33-34.08,123.42,0,34.08,34.08,34.08,89.34,0,123.42l-222.15,222.15,222.15,222.15c34.08,34.08,34.08,89.33,0,123.42-34.08,34.08-89.34,34.08-123.42,0l-222.15-222.15-222.15,222.15c-34.08,34.08-89.33,34.08-123.42,0-34.08-34.08-34.08-89.33,0-123.41l222.15-222.15-222.15-222.15c-34.08-34.08-34.08-89.33,0-123.42h0Z"/>
</svg>