<?xml version="1.0" encoding="UTF-8"?>
<svg id="Calque_1" data-name="Calque 1" xmlns="http://www.w3.org/2000/svg" viewBox="0 0 1000 1000">
  <defs>
    <style>
      .cls-1 {
        fill: #64a8ff;
      }
    </style>
  </defs>
  <path class="cls-1" d="M499.71,1000.11c-27.11,0-54.12-3-80.56-8.78-130.79-29-234.69-128.46-269.36-257.92-28.67-105.9-8.22-219.02,55.56-308.26L499.71,0l280.25,389.93c55.56,88.9,83.45,171.02,83.45,247.14,0,200.58-162.68,363.15-363.26,363.04h-.44ZM500.37,128.57l-234.14,339.15c-51.12,71.34-67.45,161.91-44.45,246.69,27.45,102.57,109.57,181.35,213.13,204.58,86.56,19.45,177.24-1.44,246.58-56.78,68.23-54.78,107.9-137.57,107.79-225.14,0-62.01-23.78-131.24-70.79-205.8,0,0-218.13-302.7-218.13-302.7ZM724.51,668.07c-1.11-20.45-18.67-36.11-39.12-35-18.89,1-34,16.11-35,35,0,69.01-56.12,125.01-125.12,125.01-20.45,1.11-36.11,18.67-35,39.12,1,18.89,16.11,34,35,35,109.79-.44,198.8-89.34,199.24-199.13Z"/>
</svg>