<?xml version="1.0" encoding="UTF-8"?>
<svg id="Calque_1" data-name="Calque 1" xmlns="http://www.w3.org/2000/svg" xmlns:xlink="http://www.w3.org/1999/xlink" viewBox="0 0 1000 1000">
  <defs>
    <style>
      .cls-1 {
        fill: url(#Dégradé_sans_nom_294);
      }
    </style>
    <linearGradient id="Dégradé_sans_nom_294" data-name="Dégradé sans nom 294" x1=".95" y1="511.7" x2="1000" y2="511.7" gradientUnits="userSpaceOnUse">
      <stop offset="0" stop-color="#c30b05"/>
      <stop offset=".3" stop-color="#ff6421"/>
      <stop offset=".62" stop-color="#ae3600"/>
      <stop offset=".82" stop-color="#c30b05"/>
      <stop offset="1" stop-color="#f66508"/>
    </linearGradient>
  </defs>
  <path d="M444.78,463.75c-33.52,38.89-35.68,91.94-4.92,118.44,30.76,26.44,82.87,16.37,116.34-22.51,33.47-38.95,35.68-91.94,4.92-118.44-30.76-26.5-82.87-16.37-116.34,22.51ZM450.59,483.44c-9.9,14.77-10.95,36.51-17.15,33.41-7.3-3.65.06-22.02,9.9-36.73,9.9-14.77,22.46-31.26,28.93-27.11,4.32,2.77-11.84,15.66-21.69,30.43h0Z"/>
  <path class="cls-1" d="M899.27,508.81c-3.76,0-34.74-7.8-34.74-7.8-61.41-12.78-43.98-68.32-43.98-68.32-.66-45.64-25.34-95.98-86.19-151.8C532.93,96.28,319.56,82.94,187.23,113.6c-5.14,1.16-123.75,45.09-130.56,188.31-8.52,178.91-27.27,180.4-48.24,270.62-20.97,90.23,0,266.48,90.23,321.03,90.23,54.55,209.83,18.86,237.1,0,27.22-18.86,88.07-125.85,247.55-213.98,73.08-40.38,153.12-88.73,199.11-147.05,48.63-42.6,27.11,28.1,21.52,44.81-.33.94-.72,1.94-1,2.88-.11.28-.22.66-.22.66,0,0-4.09,18.64-4.09,28.6,0,55.65,45.09,100.68,100.68,100.68s100.68-45.09,100.68-100.68-45.09-100.68-100.74-100.68h0ZM128.97,879.57c-4.32,1.71-53.94-39.55-79.44-102.9-25.5-63.4-17.04-183.23-12.72-184.99,4.32-1.71,2.88,115.29,28.38,178.68,25.45,63.45,68.1,107.49,63.78,109.2h0ZM135.78,208.58c-33.75,59.41-40.66,100.96-42.04,96.53-1.83-5.92-1.6-41.27,32.09-100.68,33.8-59.41,109.04-72.42,113.08-70.15,4.04,2.32-69.37,14.94-103.12,74.3ZM846.55,674.77c-5.37,6.14-20.25-16.15-25.83-33.14-10.23-31.2.89-70.98.89-70.98-1,2.6-1.6,57.87,6.92,74.68,6.64,13,24.51,22.07,18.03,29.43h0Z"/>
</svg>