<?xml version="1.0" encoding="UTF-8"?>
<svg id="Calque_1" data-name="Calque 1" xmlns="http://www.w3.org/2000/svg" viewBox="0 0 1000 1000">
  <defs>
    <style>
      .cls-1 {
        fill: #5079e2;
      }

      .cls-1, .cls-2 {
        fill-rule: evenodd;
      }

      .cls-2 {
        fill: #64a8ff;
      }
    </style>
  </defs>
  <path class="cls-1" d="M1000,560.49v234.87c0,12.32-10,22.32-22.33,22.32H22.32c-12.32,0-22.32-10-22.32-22.32v-234.87c34.29,0,64.55-18.44,83.39-42.1,11.79-14.82,19.29-31.74,19.29-47.63,0-12.32,10-22.32,22.32-22.32s22.32,10,22.32,22.32c0,15.89,7.5,32.81,19.29,47.63,18.84,23.66,49.1,42.1,83.39,42.1s64.55-18.44,83.39-42.1c11.79-14.82,19.29-31.74,19.29-47.63,0-12.32,10-22.32,22.32-22.32s22.32,10,22.32,22.32c0,15.89,7.5,32.81,19.29,47.63,18.83,23.66,49.1,42.1,83.39,42.1s64.55-18.44,83.39-42.1c11.79-14.82,19.29-31.74,19.29-47.63,0-12.32,10-22.32,22.32-22.32s22.32,10,22.32,22.32c0,15.89,7.5,32.81,19.28,47.63,18.84,23.66,49.11,42.1,83.4,42.1s64.55-18.44,83.39-42.1c11.78-14.82,19.29-31.74,19.29-47.63,0-12.32,10-22.32,22.32-22.32s22.32,10,22.32,22.32c0,15.89,7.5,32.81,19.28,47.63,18.84,23.66,49.11,42.1,83.4,42.1Z"/>
  <path class="cls-2" d="M1000,294.33v221.57c-20.04,0-37.45-11.39-48.44-25.27-5.04-6.34-9.55-13.04-9.55-19.82,0-36.97-29.96-66.97-66.97-66.97s-66.96,29.96-66.96,66.97c0,6.83-4.51,13.48-9.55,19.82-11.03,13.84-28.4,25.27-48.44,25.27s-37.46-11.39-48.44-25.27c-5.04-6.34-9.55-13.04-9.55-19.82,0-36.97-29.96-66.97-66.97-66.97s-66.96,29.96-66.96,66.97c0,6.83-4.51,13.48-9.55,19.82-11.03,13.84-28.4,25.27-48.44,25.27s-37.46-11.39-48.44-25.27c-5.04-6.34-9.55-13.04-9.55-19.82,0-36.97-29.96-66.97-66.97-66.97s-66.96,29.96-66.96,66.97c0,6.83-4.51,13.48-9.55,19.82-11.03,13.84-28.4,25.27-48.44,25.27s-37.46-11.39-48.44-25.27c-5.04-6.34-9.55-13.04-9.55-19.82,0-36.97-29.96-66.97-66.97-66.97s-66.96,29.96-66.96,66.97c0,6.83-4.51,13.48-9.56,19.82-11.02,13.84-28.39,25.27-48.43,25.27h-.36v-221.57c34.29,0,64.55-18.44,83.39-42.1.36-.44.67-.89,1.03-1.29,11.2-14.51,18.26-30.89,18.26-46.3,0-12.32,10-22.32,22.32-22.32s22.32,10,22.32,22.32c0,15.45,7.05,31.83,18.26,46.3.36.44.67.89,1.03,1.29,18.84,23.66,49.1,42.1,83.39,42.1s64.55-18.44,83.39-42.1c.36-.44.67-.89,1.03-1.29,11.2-14.51,18.26-30.89,18.26-46.3,0-12.32,10-22.32,22.32-22.32s22.32,10,22.32,22.32c0,15.45,7.05,31.83,18.26,46.3.36.44.67.89,1.03,1.29,18.84,23.66,49.1,42.1,83.39,42.1s64.55-18.44,83.39-42.1c.36-.44.67-.89,1.03-1.29,11.2-14.51,18.26-30.89,18.26-46.3,0-12.32,10-22.32,22.32-22.32s22.32,10,22.32,22.32c0,15.45,7.05,31.83,18.26,46.3.36.44.67.89,1.03,1.29,18.84,23.66,49.1,42.1,83.39,42.1s64.55-18.44,83.39-42.1c.36-.44.67-.89,1.03-1.29,11.2-14.51,18.26-30.89,18.26-46.3,0-12.32,10-22.32,22.32-22.32s22.32,10,22.32,22.32c0,15.45,7.05,31.83,18.26,46.3.36.44.67.89,1.03,1.29,18.84,23.66,49.1,42.1,83.39,42.1Z"/>
</svg>