<?xml version="1.0" encoding="UTF-8"?>
<svg id="Calque_1" data-name="Calque 1" xmlns="http://www.w3.org/2000/svg" viewBox="0 0 1000 1000">
  <defs>
    <style>
      .cls-1 {
        fill: #fff;
      }

      .cls-2 {
        fill: #806b57;
      }
    </style>
  </defs>
  <path class="cls-1" d="M480.91,455.79l-48.02,45.01-59.31-55.59c-4.95-4.62-12.62-4.62-17.58,0h.05l-59.31,55.59-48.01-45.01,116.09-148.67,61.3,78.55.24.29,54.55,69.83Z"/>
  <path class="cls-2" d="M729.56,774.34l-729.56-.05,232.85-298.2,55.07,51.63c4.95,4.63,12.62,4.63,17.58,0l59.31-55.59,59.26,55.59c4.95,4.63,12.62,4.63,17.57,0v-.04l55.07-51.59,232.85,298.25Z"/>
  <path class="cls-2" d="M1000,774.34l-238-.05-253.37-324.5c-.24-.38-.48-.71-.81-1.05l-55.21-70.69,119.04-152.39,428.35,548.68Z"/>
</svg>