<?xml version="1.0" encoding="UTF-8"?>
<svg id="Calque_1" data-name="Calque 1" xmlns="http://www.w3.org/2000/svg" viewBox="0 0 1000 1000">
  <defs>
    <style>
      .cls-1 {
        fill: #5079e2;
      }

      .cls-2 {
        fill: #444;
      }
    </style>
  </defs>
  <path class="cls-1" d="M178.06,821.53c-9.86,0-17.86,8-17.86,17.86v107.16c0,9.86,8,17.86,17.86,17.86s17.86-8,17.86-17.86v-107.16c0-9.86-8-17.86-17.86-17.86ZM178.06,678.65c-9.86,0-17.86,8-17.86,17.86v35.72c0,9.86,8,17.86,17.86,17.86s17.86-8,17.86-17.86v-35.72c0-9.86-8-17.86-17.86-17.86ZM285.22,678.65c-9.86,0-17.86,8-17.86,17.86v214.31c0,9.86,8,17.86,17.86,17.86s17.86-8,17.86-17.86v-214.31c0-9.86-8-17.86-17.86-17.86ZM392.37,678.65c-9.86,0-17.86,8-17.86,17.86v89.3c0,9.86,8,17.86,17.86,17.86s17.86-8,17.86-17.86v-89.3c0-9.86-8-17.86-17.86-17.86ZM392.37,910.82c-9.86,0-17.86,8-17.86,17.86v53.58c0,9.86,8,17.86,17.86,17.86s17.86-8,17.86-17.86v-53.58c0-9.86-8-17.86-17.86-17.86ZM499.53,678.65c-9.86,0-17.86,8-17.86,17.86v285.75c0,9.86,8,17.86,17.86,17.86s17.86-8,17.86-17.86v-285.75c0-9.86-8-17.86-17.86-17.86ZM606.68,678.65c-9.86,0-17.86,8-17.86,17.86v160.73c0,9.86,8,17.86,17.86,17.86s17.86-8,17.86-17.86v-160.73c0-9.86-8-17.86-17.86-17.86ZM713.84,678.65c-9.86,0-17.86,8-17.86,17.86v214.31c0,9.86,8,17.86,17.86,17.86s17.86-8,17.86-17.86v-214.31c0-9.86-8-17.86-17.86-17.86ZM821,732.23c-9.86,0-17.86,8-17.86,17.86v196.45c0,9.86,8,17.86,17.86,17.86s17.86-8,17.86-17.86v-196.45c0-9.86-8-17.86-17.86-17.86ZM606.68,928.68c-9.86,0-17.86,8-17.86,17.86s8,17.86,17.86,17.86,17.86-8,17.86-17.86-8-17.86-17.86-17.86ZM821,678.65c-9.86,0-17.86,8-17.86,17.86s8,17.86,17.86,17.86,17.86-8,17.86-17.86-8-17.86-17.86-17.86ZM392.37,821.53c-9.86,0-17.86,8-17.86,17.86s8,17.86,17.86,17.86,17.86-8,17.86-17.86-8-17.86-17.86-17.86ZM178.06,767.95c-9.86,0-17.86,8-17.86,17.86s8,17.86,17.86,17.86,17.86-8,17.86-17.86-8-17.86-17.86-17.86Z"/>
  <path class="cls-2" d="M999.59,464.34c0,88.78-71.96,160.73-160.73,160.73H160.2C71.43,625.07-.53,553.12-.53,464.34s71.96-160.73,160.73-160.73c3.9,0,7.7.3,11.54.59-7.41-22.7-11.54-46.87-11.54-72.03C160.2,103.94,264.14,0,392.37,0c96.27,0,178.85,58.6,214.03,142.05,21.61-10.8,45.92-17.04,71.72-17.04,88.78,0,160.74,71.96,160.74,160.74,0,6.05-.4,12.02-1.06,17.91.36,0,.7-.05,1.06-.05,88.77,0,160.73,71.95,160.73,160.73Z"/>
</svg>