<?xml version="1.0" encoding="UTF-8"?>
<svg id="Calque_1" data-name="Calque 1" xmlns="http://www.w3.org/2000/svg" viewBox="0 0 1000 1000">
  <defs>
    <style>
      .cls-1 {
        fill: #444;
      }

      .cls-2 {
        fill: #ccc;
      }
    </style>
  </defs>
  <path class="cls-2" d="M973.07,541.98c-173.92-168.1-391.58-347.71-480.89-347.71S193.18,373.84,26.63,541.9c-3.62,3.62-5.21,8.62-4.35,13.66.86,5.13,4.09,9.4,8.79,11.72,56.55,27.89,215.51,92.76,469.3,92.76s398.36-57.84,468.62-92.37c4.74-2.33,7.93-6.68,8.74-11.85.82-5.17-.91-10.17-4.66-13.84ZM191.75,555.3c-13.23,0-24.01-10.77-24.01-24.01s10.78-24.01,24.01-24.01,24.01,10.74,24.01,24.01-10.78,24.01-24.01,24.01ZM295.63,414.19c0-13.23,10.78-24.01,24.01-24.01s24.01,10.78,24.01,24.01-10.78,24.01-24.01,24.01-24.01-10.78-24.01-24.01ZM339.42,555.3c-13.23,0-24.01-10.77-24.01-24.01s10.78-24.01,24.01-24.01,23.97,10.74,24.01,24.01c0,13.24-10.78,24.01-24.01,24.01ZM431.71,306.52c0-13.24,10.77-24.01,24-24.01s24.01,10.77,24.01,24.01-10.73,24-24.01,24-24-10.77-24-24ZM453.3,440.13c0-13.23,10.78-24.01,24.01-24.01s24.01,10.78,24.01,24.01-10.78,24.01-24.01,24.01-24.01-10.78-24.01-24.01ZM515.93,611.17c-13.24,0-24.01-10.78-24.01-24.01s10.77-24.01,24.01-24.01,24,10.73,24,24.01-10.77,24.01-24,24.01ZM605.89,327.55c13.23,0,24.01,10.78,24.01,24.01s-10.78,24.01-24.01,24.01-24.01-10.78-24.01-24.01,10.78-24.01,24.01-24.01ZM612.65,521.08c-13.23,0-24.01-10.77-24.01-24s10.78-24.01,24.01-24.01,24.01,10.77,24.01,24.01-10.78,24-24.01,24ZM701.88,451.17c-13.24,0-24.01-10.77-24.01-24.01s10.77-24.01,24.01-24.01,24,10.78,24,24.01-10.77,24.01-24,24.01ZM784.16,568.28c-13.23,0-24.01-10.78-24.01-24.01s10.78-24.01,24.01-24.01,24.01,10.73,24.01,24.01-10.78,24.01-24.01,24.01Z"/>
  <path class="cls-1" d="M988.43,526.13h-.01c-110.08-106.43-378.87-353.92-496.24-353.92S116.5,419.87,10.99,526.34c-8.67,8.75-12.5,20.73-10.43,32.85,2.02,12.06,9.78,22.45,20.77,27.88,71.98,35.52,229.96,95,479.04,95s406.33-59.31,478.32-94.65c11.16-5.48,18.92-16.04,20.86-28.23,1.89-12.12-2.24-24.49-11.12-33.06ZM977.73,555.82c-.81,5.17-4,9.52-8.74,11.85-70.26,34.53-224.57,92.37-468.62,92.37s-412.75-64.87-469.3-92.76c-4.7-2.32-7.93-6.59-8.79-11.72-.86-5.04.73-10.04,4.35-13.66C193.18,373.84,402.96,194.27,492.18,194.27s306.97,179.61,480.89,347.71c3.75,3.67,5.48,8.67,4.66,13.84Z"/>
  <path class="cls-1" d="M479.72,306.52c0,13.23-10.73,24-24.01,24s-24-10.77-24-24,10.77-24.01,24-24.01,24.01,10.77,24.01,24.01Z"/>
  <path class="cls-1" d="M343.65,414.19c0,13.23-10.78,24.01-24.01,24.01s-24.01-10.78-24.01-24.01,10.78-24.01,24.01-24.01,24.01,10.78,24.01,24.01Z"/>
  <path class="cls-1" d="M215.76,531.29c0,13.24-10.78,24.01-24.01,24.01s-24.01-10.77-24.01-24.01,10.78-24.01,24.01-24.01,24.01,10.74,24.01,24.01Z"/>
  <path class="cls-1" d="M501.32,440.13c0,13.23-10.78,24.01-24.01,24.01s-24.01-10.78-24.01-24.01,10.78-24.01,24.01-24.01,24.01,10.78,24.01,24.01Z"/>
  <path class="cls-1" d="M202.28,688.53c-13.23,0-24.01,10.78-24.01,24.01s10.78,24.01,24.01,24.01,24.01-10.78,24.01-24.01-10.78-24.01-24.01-24.01Z"/>
  <path class="cls-1" d="M363.43,531.29c0,13.24-10.78,24.01-24.01,24.01s-24.01-10.77-24.01-24.01,10.78-24.01,24.01-24.01,23.97,10.74,24.01,24.01Z"/>
  <path class="cls-1" d="M629.9,351.56c0,13.23-10.78,24.01-24.01,24.01s-24.01-10.78-24.01-24.01,10.78-24.01,24.01-24.01,24.01,10.78,24.01,24.01Z"/>
  <path class="cls-1" d="M725.88,427.16c0,13.24-10.77,24.01-24,24.01s-24.01-10.77-24.01-24.01,10.77-24.01,24.01-24.01,24,10.78,24,24.01Z"/>
  <path class="cls-1" d="M636.66,497.08c0,13.23-10.78,24-24.01,24s-24.01-10.77-24.01-24,10.78-24.01,24.01-24.01,24.01,10.77,24.01,24.01Z"/>
  <path class="cls-1" d="M808.17,544.27c0,13.23-10.78,24.01-24.01,24.01s-24.01-10.78-24.01-24.01,10.78-24.01,24.01-24.01,24.01,10.73,24.01,24.01Z"/>
  <path class="cls-1" d="M539.93,587.16c0,13.23-10.77,24.01-24,24.01s-24.01-10.78-24.01-24.01,10.77-24.01,24.01-24.01,24,10.73,24,24.01Z"/>
  <path class="cls-1" d="M349.94,727.45c-13.23,0-24.01,10.78-24.01,24.01s10.78,24.01,24.01,24.01,24.01-10.78,24.01-24.01-10.78-24.01-24.01-24.01Z"/>
  <path class="cls-1" d="M260.71,779.78c-13.23,0-24.01,10.78-24.01,24.01s10.78,24.01,24.01,24.01,24.01-10.78,24.01-24.01-10.78-24.01-24.01-24.01Z"/>
</svg>