<?xml version="1.0" encoding="UTF-8"?>
<svg id="Calque_1" data-name="Calque 1" xmlns="http://www.w3.org/2000/svg" viewBox="0 0 1000 1000">
  <defs>
    <style>
      .cls-1 {
        fill: #806b57;
      }
    </style>
  </defs>
  <path class="cls-1" d="M251.92,676.52l-24.26-4.41c-2.21,0-4.41,1.1-4.41,3.31l-3.31,20.95c0,2.21-2.21,3.31-3.31,3.31-7.72,1.1-17.64,3.31-22.05-1.1-7.72-7.72-12.13-19.85-18.75-33.08,1.1,0-5.51-1.1-6.62,1.1-5.51,13.23-16.54,24.26-28.67,15.44-12.13-8.82-19.85-24.26-26.47-38.6-4.41-9.92,4.41-27.57-17.64-25.36-1.1,0-4.41-11.03-2.21-15.44,2.21-6.62,7.72-12.13,13.23-18.75,1.1-1.1,1.1-2.21,1.1-3.31l-4.41-27.57c7.72-3.31,6.62-3.31,14.34-6.62l3.31,3.31c3.31-1.1,5.51-2.21,5.51-3.31,1.1-47.42,48.52-60.65,69.47-93.73,11.03-18.75,28.67-33.08,45.21-47.42,27.57-24.26,28.67-24.26,46.31,3.31,1.1,2.21,3.31,2.21,5.51,1.1l22.05-19.85c-1.1-1.1-1.1-3.31-2.21-4.41l-6.62,2.21q-4.41-5.51-8.82-12.13l20.95-30.88c7.72,1.1,8.82,1.1,16.54,2.21h0c1.1,2.21,3.31,3.31,5.51,2.21,8.82-5.51,18.75-11.03,27.57-16.54,17.64-12.13,36.39-24.26,54.03-36.39,4.41-2.21,12.13-3.31,12.13-5.51,7.72-34.18,37.49-23.16,57.34-26.47,33.08-4.41,70.57-2.21,92.63,29.77,19.85,28.67,46.31,37.49,79.4,33.08,17.64-2.21,20.95,5.51,25.36,19.85,3.31,9.92,14.34,20.95,24.26,24.26,22.05,6.62,45.21,5.51,50.73,37.49,3.31,14.34,19.85,28.67,34.18,38.6,28.67,20.95,59.55,39.7,88.22,58.44,2.21,1.1,4.41,0,5.51-1.1l4.41-11.03c1.1-2.21,4.41-2.21,6.62,0,5.51,9.92,8.82,17.64,12.13,25.36,2.21,6.62,3.31,14.34,4.41,24.26,0,2.21,3.31,4.41,5.51,2.21l18.75-14.34c1.1-1.1,3.31-1.1,4.41,0,13.23,13.23,27.57,28.67,40.8,44.11,5.51,6.62,12.13,15.44,9.92,22.05-1.1,6.62-11.03,12.13-18.75,15.44-9.92,4.41-22.05,5.51-27.57,6.62-1.1,0-2.21,1.1-2.21,2.21-6.62,14.34-8.82,28.67-16.54,30.88-8.82,3.31-20.95-1.1-31.98-8.82-1.1-1.1-2.21-1.1-3.31,0l-71.68,22.05c-1.1,0-2.21,1.1-2.21,2.21-13.23,28.67-31.98,33.08-68.37,11.03-2.21-1.1-3.31-2.21-5.51-2.21h-86.01c-2.21,0-3.31,1.1-3.31,3.31v43.01c0,2.21-2.21,4.41-4.41,3.31-17.64-2.21-37.49,4.41-44.11-22.05-1.1-2.21-17.64-3.31-25.36-1.1-6.62,2.21-12.13,8.82-18.75,14.34-1.1,1.1-2.21,3.31-1.1,4.41l7.72,11.03c1.1,2.21,0,5.51-3.31,5.51l-29.77-3.31c-2.21,0-3.31-2.21-3.31-4.41,4.41-18.75,28.67-37.49-1.1-52.93-2.21,1.1-4.41,2.21-4.41,3.31-1.1,11.03-2.21,33.08-4.41,33.08-17.64,1.1-35.29-1.1-52.93-4.41-6.62-1.1-14.34-11.03-18.75-8.82-33.08,11.03-58.44,3.31-79.4-23.16-1.1-2.21-4.41-2.21-5.51,0-15.44,24.26-13.23,31.98,7.72,43.01,3.31,1.1,2.21,5.51-1.1,6.62l-40.8,8.82c-2.21,0-4.41-1.1-4.41-3.31-2.21-7.72-2.21-16.54-6.62-19.85-6.62-5.51-17.64-8.82-26.47-8.82-11.03,1.1-22.05,5.51-31.98,8.82-2.21,1.1-4.41,0-4.41-2.21l-8.82-33.08c-2.21,0-3.31-1.1-4.41-1.1ZM170.31,537.58l-5.51-3.31c-2.21-1.1-4.41-1.1-5.51,1.1l-24.26,35.29c-1.1,1.1-1.1,4.41,1.1,5.51l5.51,3.31c1.1,1.1,4.41,1.1,5.51-1.1l24.26-35.29c1.1-2.21,0-4.41-1.1-5.51Z"/>
  <path class="cls-1" d="M64.45,550.81l-11.03,54.03c0,1.1,0,2.21,1.1,3.31l31.98,26.47c2.21,1.1,2.21,4.41,0,5.51-7.72,5.51-14.34,11.03-22.05,15.44q-6.62-4.41-13.23-8.82c9.92-40.8-28.67-26.47-49.62-35.29-2.21-1.1-3.31-3.31-2.21-4.41,9.92-22.05,2.21-54.03,38.6-60.65,8.82-1.1,17.64-5.51,25.36-8.82,8.82-4.41,16.54-9.92,25.36-14.34,3.31-2.21,6.62,2.21,4.41,5.51l-24.26,28.67c0-2.21-2.21-4.41-4.41-6.62Z"/>
</svg>