<?xml version="1.0" encoding="UTF-8"?>
<svg id="Calque_1" data-name="Calque 1" xmlns="http://www.w3.org/2000/svg" viewBox="0 0 1000 1000">
  <defs>
    <style>
      .cls-1 {
        fill: #444;
      }
    </style>
  </defs>
  <path class="cls-1" d="M807.03,161.33c-25.93,7.46-52.42,12.77-79.21,15.88-121.91,15.1-347.54-8.37-319.5-65.23,14.97-31.84,107.03-46.46,164.58-46.46,35.03,0,113.2,5.18,139.95,27.48,17.95,15.1,40.03-11.22,22.43-25.88-36.67-30.72-118.04-36.02-162.38-36.02-71.83-.09-201.25,17.82-201.25,89.26,0,59.71,96.81,88.44,205.74,95.08C221.35,277.33-47.85,128.46,271,32.86c148.01-44.35,388.01-44.35,536.02,0,118.38,35.46,118.38,93.05,0,128.47h0Z"/>
  <path class="cls-1" d="M904.61,327.07c-7.25-20.97-37.01-9.92-34.21,10.18,1.86,13.46-53.15,29.08-71.61,33.56,36.15-46.16,80.41-104.75,93.27-210.27-41.16,29.33-106.73,44.18-156.86,50.65-167.04,55.52-464.41,88.96-598.1-8.89,14.45,63.5,46.81,118.38,84.12,173.08-22.61-4.57-88.65-20.58-93.27-37.27-1.98-22.69-36.41-19.67-34.38,3.02,2.55,28.99,39.6,50.73,113.33,66.52,166.52,35.94,424.24,19.84,424.42,19.84,22.26-.69,24.12,33.13,1.42,34.51-101.64,6.04-242.97,5.69-356.6-8.11,37.1,53.58,78.34,118.98,97.5,181.19-53.75-11.3-111.52-31.32-77.65-56.9,18.03-13.59-2.85-40.98-20.49-27.74-48.36,36.02-37.57,95.69,108.5,121.74,37.23,6.3,74.76,10.22,112.43,11.73,23.08,1.04,21.35,35.5-1.47,34.51-33.91-1.38-67.77-4.57-101.38-9.58,13.63,51.94,30.93,109.84,64.45,161.52-33.65-4.75-101.81-19.15-74.33-39.34,17.95-13.16-1.47-40.98-19.67-28.17-18.25,12.81-29.55,30.41-20.71,50.99,21.05,48.53,142.89,53.75,143.48,54.36,14.24,2.46,31.36,55.48,146.24,90.77l.04.04c11.52,3.58,24.12.04,32.14-9.06,7.98-9.06,9.92-21.96,4.96-33-3.28-7.2-6.26-14.24-8.89-21.14l-.04-.04c-23.9,4.23-48.1,6.9-72.35,7.98-22.86,1.21-24.76-33.05-2.03-34.51,1.73-.6,136.19-3.28,160.14-54.62,5.95-12.94,3.97-27.13-5.57-39-14.28-17.86-41.24,3.71-26.96,21.57,9.66,11.91-47.97,27.61-70.49,31.45-3.54-27.35-1.25-55.13,6.69-81.54h.04c-46.59,9.45-94.43,10.7-141.46,3.71-22.61-3.41-17.47-37.53,5.09-34.17,91.76,13.76,136.76-10.79,150.47-4.31h.04c7.16-13.76,15.49-26.92,24.81-39.34-19.33,2.2-39.86,3.88-61.6,5-22.74,1.21-24.59-32.92-2.16-34.51,2.16,0,35.46-2.03,58.5-4.7,50.65-5.35,153.58-22.43,175.8-68.46,7.07-14.67,5.35-30.37-4.92-44.26h-.04c-5.74-7.33-16.26-8.8-23.77-3.24-7.55,5.52-9.28,16-4.01,23.68,13.98,19.07-47.63,39-71.4,44.95,56.82-80.07-25.02-107.51-5.44-182.22-17.56-2.67-20.02-30.97.6-34.17,36.28-5.52,86.76-15.7,119.06-32.79,30.93-16.05,40.77-36.67,34.3-55.22h0ZM607.42,328.63h.04c-78.56,9.02-158.03,6.43-235.81-7.68-22.48-4.06-16.31-38.05,6.13-33.95,74.46,13.46,150.52,15.92,225.72,7.33,22.69-2.59,26.66,31.71,3.97,34.3h-.04ZM479.51,570.21c-9.15-.69-18.38-1.55-27.52-2.59-22.69-2.63-18.72-36.88,3.97-34.3,8.63.99,17.43,1.81,26.14,2.46,23.12,1.77,19.72,36.67-2.59,34.47v-.04ZM698.67,551.41h.04c-46.55,11.56-94.13,18.34-142.1,20.19-21.83,1.98-24.94-33.56-1.29-34.51,45.56-1.77,90.85-8.2,135.11-19.2,22.17-5.39,30.5,28.08,8.33,33.56l-.08-.04ZM774.59,291.19c-20.79,7.03-42.15,13.29-63.42,18.64-22.35,5.48-30.28-28.04-8.37-33.48,20.36-5.09,40.81-11.09,60.74-17.86,21.7-7.25,32.74,25.41,11.13,32.74l-.09-.04Z"/>
</svg>