<?xml version="1.0" encoding="UTF-8"?>
<svg id="Calque_1" data-name="Calque 1" xmlns="http://www.w3.org/2000/svg" viewBox="0 0 1000 1000">
  <defs>
    <style>
      .cls-1 {
        fill: #ccc;
      }
    </style>
  </defs>
  <path class="cls-1" d="M1000,500.44c.12,137.94-110.7,250.34-248.63,252.17-2.43,139.1-117.17,249.89-256.27,247.46-135.67-2.37-245.09-111.79-247.46-247.46C108.49,750.71-2.78,636.37-.88,497.22c1.48-108.07,71.7-203.16,174.56-236.36,20.26-6.44,41.91,4.76,48.36,25.02,6.44,20.26-4.76,41.91-25.02,48.36-91.94,29.78-142.32,128.45-112.54,220.39,10.16,31.37,28.98,59.23,54.29,80.37,40.03,33.36,92.81,47.23,144.07,37.85,20.92-3.78,40.95,10.11,44.73,31.04.83,4.59.82,9.3-.04,13.89-17.12,94.98,45.99,185.86,140.98,202.98,94.98,17.12,185.86-45.99,202.98-140.98,3.7-20.5,3.7-41.5,0-62-3.89-20.9,9.9-41,30.81-44.89,4.59-.85,9.3-.87,13.89-.04,95.05,17.56,186.34-45.25,203.91-140.3,1.96-10.59,2.93-21.33,2.91-32.1.36-75.9-48.66-143.23-121-166.2-20.26-6.44-31.47-28.09-25.02-48.36s28.09-31.47,48.36-25.02h0c104.36,33.06,175.12,130.11,174.67,239.58ZM499.5,704.29c21.26,0,38.5-17.24,38.5-38.5V38.45C538,17.18,520.76-.05,499.5-.05s-38.5,17.24-38.5,38.5v627.35c0,21.26,17.24,38.5,38.5,38.5ZM326.25,527.2h2.27c20.42.03,37.32-15.88,38.5-36.27l23.1-396.12c1.24-21.26-14.98-39.51-36.25-40.75-21.26-1.24-39.51,14.98-40.75,36.25h0l-23.1,396.16c-1.27,21.22,14.91,39.46,36.13,40.73.03,0,.06,0,.09,0ZM670.71,527.2h2.04c21.23-1.22,37.45-19.41,36.23-40.64,0-.02,0-.03,0-.05l-23.1-396.16c-1.24-21.26-19.49-37.49-40.75-36.25-21.26,1.24-37.49,19.49-36.25,40.75l23.1,396.12c1.21,20.42,18.16,36.33,38.62,36.23h.12Z"/>
</svg>