<?xml version="1.0" encoding="UTF-8"?>
<svg id="Calque_1" data-name="Calque 1" xmlns="http://www.w3.org/2000/svg" viewBox="0 0 1000 1000">
  <defs>
    <style>
      .cls-1 {
        fill: #fff;
      }

      .cls-1, .cls-2 {
        fill-rule: evenodd;
      }

      .cls-2 {
        fill: #ccc;
      }
    </style>
  </defs>
  <path class="cls-1" d="M487.67,164.58c30.19-7.47,55.32-26.23,84.01-37.17,23.75-9.06,51.61-11.22,76.7-7.92,37.41,4.9,71.52,24.56,106.33,39.45,39.74,17.01,80.17,28.27,125.42,13.83,8.57-2.73,13.3-11.95,10.57-20.52-2.73-8.57-11.95-13.3-20.52-10.57-37.09,11.83-70.05,1.22-102.61-12.73-37.49-16.08-74.58-36.52-114.93-41.82-30.31-3.96-63.93-1.14-92.58,9.83-27.42,10.49-51.33,28.85-80.21,35.99-8.73,2.16-14.08,11.02-11.91,19.75,2.16,8.73,11.02,14.08,19.79,11.91l-.05-.04Z"/>
  <path class="cls-1" d="M529.33,215.58c13.99-7.14,27.66-15.01,42.35-20.65,23.75-9.06,51.61-11.22,76.7-7.92,37.41,4.9,71.52,24.56,106.33,39.45,39.74,17.01,80.17,28.27,125.42,13.83,12.85-4.12,25.09-9.06,36.43-16.44,7.55-4.9,9.71-15.01,4.86-22.56-4.9-7.55-15.01-9.71-22.56-4.81-8.89,5.79-18.56,9.51-28.64,12.73-37.09,11.83-70.05,1.22-102.61-12.73-37.49-16.08-74.58-36.52-114.93-41.82-30.31-3.96-63.93-1.14-92.58,9.83-15.75,6-30.48,14.4-45.49,22.03-8.04,4.08-11.22,13.91-7.14,21.95,4.08,8.04,13.91,11.22,21.95,7.14l-.09-.04Z"/>
  <path class="cls-1" d="M590.25,266.05c22.24-6.12,46.88-7.3,69.4-4.49,39,4.9,74.58,24.6,110.85,39.54,41.04,16.93,82.82,28.15,129.58,13.79,13.3-4.08,25.91-9.02,37.66-16.32,14.89-9.26,27.09-20.69,38.15-33.9,5.79-6.9,4.86-17.22-2.04-22.97-6.9-5.79-17.22-4.86-22.97,2.04-8.85,10.57-18.48,19.79-30.4,27.17-9.34,5.83-19.46,9.59-30.03,12.85-38.88,11.95-73.44,1.31-107.59-12.77-38.92-16.03-77.36-36.48-119.22-41.74-26.64-3.35-55.81-1.84-82.17,5.43-8.69,2.37-13.79,11.38-11.38,20.07,2.41,8.69,11.38,13.79,20.07,11.38l.09-.08Z"/>
  <path class="cls-2" d="M233.38,573.32c-16.36-11.47-29.82-26.72-39.09-44.55-20.16,14.08-44.63,22.36-71.07,22.36-68.54,0-124.16-55.65-124.16-124.16,0-48.72,28.11-90.94,68.99-111.26.04-44.68,36.31-80.95,80.99-80.95,9.3,0,18.24,1.55,26.56,4.45,18.36-45.66,63.08-77.89,115.26-77.89,62.75,0,114.73,46.68,123.01,107.18,13.1-5.06,27.34-7.83,42.19-7.83,41.66,0,78.29,21.75,99.1,54.55-42.55,21.5-75.97,58.59-92.78,103.71-9.51-1.35-19.18-2.04-29.01-2.04-96.61,0-177.8,66.67-200,156.46v-.04Z"/>
  <path class="cls-2" d="M260.05,617.21c2.98-93.06,79.48-167.73,173.28-167.73,18.2,0,35.74,2.82,52.22,8,13.06-73.85,77.64-130.03,155.24-130.03,72.5,0,133.66,49.08,152.02,115.79,3.55-.45,7.18-.69,10.85-.69,47.41,0,85.92,38.52,85.92,85.92,0,6.85-.82,13.51-2.33,19.91,64.42,14.12,112.73,71.56,112.73,140.19,0,79.19-64.3,143.49-143.49,143.49-37.49,0-71.64-14.4-97.23-37.98-11.02,68.3-70.3,120.48-141.65,120.48-44.39,0-84.13-20.2-110.44-51.94-18.07,14.77-41.21,23.62-66.34,23.62-57.94,0-105.02-47.04-105.02-104.98,0-4.94.37-9.75,1.02-14.52l-.53-.37c13.3-1.39,26.81-1.14,39.62.53,28.93,3.79,55.77,16.65,82.62,28.93,30.03,13.79,60.02,26.89,91.8,29.74,8.98.82,16.89-5.83,17.71-14.81.78-8.98-5.83-16.89-14.81-17.71-28.11-2.49-54.47-14.69-81.07-26.89-29.78-13.67-59.85-27.46-91.96-31.62-24.4-3.18-51-1.92-75.32,4.49-8.4-9.26-15.79-19.46-22.03-30.35,5.67-2.77,11.47-5.34,17.34-7.63,23.46-8.94,51-11.06,75.77-7.83,37.01,4.86,70.71,24.28,105.06,39,39.33,16.85,79.4,27.99,124.16,13.67,8.57-2.73,13.3-11.95,10.57-20.52-2.73-8.57-11.95-13.3-20.52-10.57-36.64,11.71-69.2,1.22-101.35-12.57-37.13-15.91-73.77-36.15-113.71-41.37-29.99-3.92-63.28-1.14-91.68,9.71-6.53,2.49-12.85,5.43-19.09,8.57-2.98-8.69-5.3-17.71-6.9-26.93,12.36-6.41,24.64-12.97,37.66-17.95,23.46-8.98,51-11.06,75.77-7.83,30.07,3.92,57.94,17.67,85.84,30.44,31.37,14.32,62.75,27.5,96.25,28.72,9.02.33,16.56-6.73,16.89-15.71.33-9.02-6.73-16.56-15.71-16.89-29.25-1.06-56.47-13.26-83.84-25.79-30.89-14.12-61.89-28.76-95.19-33.09-29.99-3.92-63.28-1.14-91.68,9.71-9.79,3.71-19.13,8.49-28.4,13.38h-.06Z"/>
  <path class="cls-1" d="M304.81,739.13c9.34,10.32,19.91,19.5,31.5,27.34-12.48,1.31-24.81,4.04-36.15,8.36-28.36,10.81-53.24,29.38-83.11,36.76-47.04,11.63-83.44-2.61-95.84-6.24-8.65-2.53-13.63-11.59-11.1-20.24s11.59-13.63,20.24-11.1c10.2,2.98,40.15,15.46,78.87,5.92,28.56-7.06,52.18-25.21,79.27-35.58,5.3-2,10.77-3.75,16.32-5.22h0ZM282.77,708.77c-21.58,10.49-42.1,23.3-65.73,29.17-70.05,17.34-131.87-17.09-162.67-38.76-7.38-5.18-9.14-15.38-3.96-22.73,5.18-7.38,15.38-9.14,22.73-3.96,25.83,18.16,77.32,48.31,136.06,33.78,21.66-5.39,40.51-17.14,60.18-27.01,3.55,10.32,8.04,20.2,13.38,29.54v-.04ZM260.09,617.22c-.04,1.88-.08,3.75-.08,5.63,0,10.04.86,19.87,2.49,29.42-14.61,7.55-29.29,14.81-45.45,18.81-18.93,4.69-45.12,8.94-93.8-15.38-8.08-4.04-11.34-13.83-7.3-21.91,4.04-8.08,13.83-11.34,21.91-7.3,37.13,18.56,56.92,16.48,71.36,12.89,18.24-4.53,34.48-13.55,50.88-22.2v.04Z"/>
</svg>