<?xml version="1.0" encoding="UTF-8"?>
<svg id="Calque_1" data-name="Calque 1" xmlns="http://www.w3.org/2000/svg" viewBox="0 0 1000 1000">
  <defs>
    <style>
      .cls-1 {
        fill: #66574b;
      }

      .cls-2 {
        fill: #f66508;
      }

      .cls-3 {
        fill: #444;
      }
    </style>
  </defs>
  <path class="cls-1" d="M1000.02,1000h-464.29c19.22-30-51.11-59.5-130.18-84.54-56.17-17.82-187.39-57.14-44.03-103.32,44.32-14.28,87.25-25.32,127.32-49.82,19.96-12.18,42.96-42.43,35.32-67.78-8.82-29.4-20.36-43.97-44.71-64.11-49.65-41.04,17.35-78.11,66.25-99.25,53.28-9.5,97.17-31.18,97.17-31.18l.31.43,356.84,499.57Z"/>
  <path class="cls-3" d="M464.27,464.29c178.57-71.43,0-168.82,0-214.29,0-73.61,178.57-178.57,285.71-107.14,107.14,71.43,178.57-71.43,178.57-142.86H321.41c23.82,10.82,178.57,107.14,107.14,142.86-63,31.5-151.79,12.96-178.57,71.43-56.54,114.71,250,142.86,214.29,250Z"/>
  <path class="cls-2" d="M535.73,1000h-129.57c8.97-17.04.64-33.46-42.53-45.82-28.97-8.25-175.93-32.57-140.65-93.18,21.75-37.32,57.93-59.18,97.11-74.71,70.64-28,172.07-57.22,76.79-141.4-49.9-44.07-2.5-84.39,54.39-114.14,11.78-3.31,28.53-6.65,48.73-6.39,18.79.25,34.42,3.54,45.7,6.82-48.9,21.14-115.9,58.21-66.25,99.25,24.35,20.14,35.89,34.71,44.71,64.11,7.64,25.35-15.36,55.6-35.32,67.78-40.07,24.5-83,35.54-127.32,49.82-143.36,46.18-12.14,85.5,44.03,103.32,79.07,25.04,149.4,54.54,130.18,84.54Z"/>
  <polygon class="cls-1" points="643.18 500 643.18 500.43 642.87 500 643.18 500"/>
  <path class="cls-1" d="M320.09,786.29c-39.18,15.53-75.36,37.39-97.11,74.71-35.28,60.61,111.68,84.93,140.65,93.18,43.17,12.36,51.5,28.78,42.53,45.82H-.02l168.62-236.06,188.53-263.94s42.25,20.96,94.14,30.75c-56.89,29.75-104.29,70.07-54.39,114.14,95.28,84.18-6.15,113.4-76.79,141.4Z"/>
</svg>